<?xml version="1.0" standalone="no"?>
<!DOCTYPE svg PUBLIC "-//W3C//DTD SVG 20010904//EN"
 "http://www.w3.org/TR/2001/REC-SVG-20010904/DTD/svg10.dtd">
<svg version="1.0" xmlns="http://www.w3.org/2000/svg"
 width="190.000000pt" height="190.000000pt" viewBox="0 0 190.000000 190.000000"
 preserveAspectRatio="xMidYMid meet">
<metadata>
Created by potrace 1.11, written by Peter Selinger 2001-2013
</metadata>
<g transform="translate(0.000000,190.000000) scale(0.100000,-0.100000)"
fill="#000000" stroke="none">
<path d="M1264 1581 c-21 -15 -97 -87 -169 -160 l-129 -131 -3 -208 c-3 -153
1 -231 12 -298 8 -49 17 -168 19 -264 l4 -174 28 -14 c55 -29 617 3 697 39 30
13 32 20 16 36 -8 8 -7 81 2 259 10 209 10 278 -2 427 -8 99 -11 181 -7 184
15 8 8 20 -19 33 -27 12 -27 13 -7 20 24 9 88 81 110 122 14 26 13 28 -38 70
-28 24 -61 53 -74 66 -29 30 -45 22 -132 -60 l-63 -60 -28 23 c-113 94 -148
119 -162 119 -9 0 -34 -13 -55 -29z m429 -64 l38 -32 -40 -42 c-43 -44 -51
-63 -27 -63 18 0 76 66 76 87 0 16 1 16 16 1 19 -18 16 -23 -46 -95 -41 -48
-47 -47 -128 29 l-51 48 52 50 c29 27 57 50 62 50 6 0 27 -15 48 -33z m-383
-2 c10 -13 10 -19 -5 -35 -10 -11 -21 -17 -26 -15 -10 7 -59 -16 -59 -27 0 -9
59 -13 125 -10 26 2 46 9 58 23 17 21 17 21 92 -46 41 -37 75 -69 75 -71 0 -3
-30 18 -66 46 -37 27 -70 50 -74 50 -4 0 -13 -6 -19 -14 -10 -11 -8 -17 6 -25
14 -7 6 -9 -32 -8 -61 2 -67 -16 -16 -50 l34 -23 -67 0 c-42 0 -65 4 -61 10 4
6 -5 10 -21 10 l-26 0 23 19 c36 29 18 34 -41 11 -29 -11 -54 -19 -57 -17 -2
3 9 9 24 15 37 13 70 39 61 47 -4 4 -33 -7 -65 -24 l-57 -31 34 35 c33 34 36
61 4 34 -16 -13 -16 -12 -5 9 7 12 25 25 41 28 15 4 43 21 61 40 37 39 42 40
59 19z m185 -202 c19 -12 18 -13 -6 -13 -14 0 -34 9 -43 19 -17 19 -17 19 6
14 12 -3 32 -12 43 -20z m-278 11 c-3 -3 -12 -4 -19 -1 -8 3 -5 6 6 6 11 1 17
-2 13 -5z m340 -20 c-3 -3 -12 -4 -19 -1 -8 3 -5 6 6 6 11 1 17 -2 13 -5z
m121 -50 c2 -1 10 -95 17 -208 9 -142 10 -242 4 -323 -5 -65 -9 -164 -7 -221
1 -68 -2 -106 -10 -114 -9 -9 -12 41 -12 221 l0 233 -135 -4 c-99 -2 -138 -7
-144 -16 -4 -8 -5 -33 0 -56 4 -24 11 -107 14 -185 8 -168 14 -196 41 -196 18
0 19 8 15 149 -1 81 -7 173 -11 205 -4 31 -6 58 -3 61 3 3 42 6 88 7 l84 1 6
-61 c3 -34 4 -129 2 -212 l-4 -150 -39 -7 c-74 -12 -478 -20 -506 -9 -24 9
-27 15 -32 88 -3 43 -13 164 -22 268 -13 148 -14 228 -8 360 l9 170 50 5 c50
6 597 0 603 -6z"/>
<path d="M1598 1491 c-36 -37 -48 -61 -29 -61 12 0 101 80 101 91 0 21 -38 6
-72 -30z"/>
<path d="M1645 1466 c-32 -30 -46 -66 -27 -66 13 0 82 74 82 88 0 21 -20 13
-55 -22z"/>
<path d="M845 1266 c-126 -33 -181 -57 -267 -115 -89 -61 -126 -94 -211 -188
-101 -112 -194 -266 -259 -426 -17 -44 -47 -182 -48 -224 0 -9 21 -13 73 -13
l73 0 19 73 c33 132 102 286 175 392 40 57 203 213 282 268 66 47 168 98 221
111 26 6 27 9 27 64 0 32 5 63 12 70 16 16 8 15 -97 -12z"/>
<path d="M887 1084 c-108 -38 -223 -119 -359 -256 -78 -78 -94 -101 -142 -201
-47 -98 -116 -286 -116 -316 0 -16 135 -14 147 2 5 6 15 32 22 57 7 25 30 84
52 132 77 173 197 296 424 433 13 8 16 24 13 86 l-3 76 -38 -13z"/>
</g>
</svg>
