<?xml version="1.0" encoding="utf-8"?>
<!-- Generator: Adobe Illustrator 19.0.0, SVG Export Plug-In . SVG Version: 6.00 Build 0)  -->
<svg version="1.1" id="Layer_1" xmlns="http://www.w3.org/2000/svg" xmlns:xlink="http://www.w3.org/1999/xlink" x="0px" y="0px"
	 viewBox="0 0 334.7 117.3" style="enable-background:new 0 0 334.7 117.3;" xml:space="preserve">
<style type="text/css">
	.st0{fill:#0B0B0B;}
	.st1{fill:#11916B;}
	.st2{fill:#E9D10C;}
	.st3{fill:#0D7EC3;}
	.st4{fill:#BD3119;}
	.st5{fill:#097DC2;}
	.st6{fill:#0D957A;}
	.st7{fill:#D16B04;}
	.st8{fill:#C01D0D;}
	.st9{fill:#C01B0D;}
	.st10{fill:#C01F0F;}
	.st11{fill:#BF190B;}
</style>
<g>
	<g>
		<path class="st0" d="M68.5,41.3c0.7,0,1.5-0.1,2.2-0.1c-0.2,6.3-1.1,12.6-0.6,18.8c0.6,7,1.6,14,1.7,21.1c0,2.2,1.1,2.8,2.9,2.8
			c5.2-0.1,10.5,0.4,15.7-0.5c0.6,0,1.3,0,1.9,0c2.5,0.3,4.9,0,7.4-0.6c0.7,0.3,1.5,0.3,2.2,0.1c1.5,0.1,1.4-0.9,1.4-1.9
			c-0.6-8.1,0.9-16.2,0.2-24.2c-0.5-5.3-0.4-10.6-1.1-15.9c0.7-0.1,1.3-0.1,2-0.2c1.1,6.2,1.1,12.5,1.1,18.8
			c0,6.4-0.4,12.7-0.6,19.1c0,0.8-0.2,1.7,0,2.4c1.1,2.5-0.8,2.8-2.3,3c-10,1.7-20,1.8-30,1.5c-2.6-0.1-3.4-1.1-2.6-3.5
			c0.3-0.9-0.2-1.5-0.2-2.3c0.2-7.3-1.2-14.6-1.6-21.9C67.9,52.3,67.7,46.8,68.5,41.3z"/>
		<path class="st1" d="M99.7,82.7c-0.1-6.5,0.7-13-0.1-19.5c-0.1-0.6-0.3-0.9-0.9-0.8c-0.2,0-0.3,0-0.5,0c-2.2,0.3-4.9-1-6.5,0.4
			c-1.6,1.5,0,4.1,0,6.3c0,4.1-0.2,8.3,0.5,12.4c0.1,0.4-0.3,0.9-0.4,1.3c-0.4,0-0.9,0-1.3,0.1c-1.6-3.6-0.9-7.4-1.2-11.1
			C89,69,89,66.2,88.5,63.5c-0.3-1.5,0.1-2.1,1.5-2.3c3.6-0.7,7.3-0.3,11-0.4c1.4,0,1,1.2,1,2c0,6.7,0,13.4-0.1,20.1
			C101.2,83,100.5,83,99.7,82.7z"/>
		<path class="st2" d="M97.9,71.9c-0.5,1.3,0.2,3.2-2,3.1c-1.1-0.1-1.2-0.9-1.1-1.7c0.3-1.3,0.3-3,2-3.1
			C98,69.9,97.8,71.2,97.9,71.9z"/>
		<path class="st3" d="M103,37.4c0.3,0.3,0.6,0.8,1,0.9c1.8,0.5,1.1,1.4,0.3,2.3c-0.7,0.1-1.3,0.1-2,0.2c-1.6-0.2-3.1-0.3-4.7-0.2
			c-4.3,0.2-8.6,0.2-12.9-0.1c-4.7-0.3-9.4-0.5-14,0.7c-0.7,0-1.5,0.1-2.2,0.1c-0.8-0.7-0.9-1.5-0.1-2.3c4.8-4.6,9.1-9.9,14.3-14
			c1.6-1.3,2.9-1.3,4.6,0.1c2.3,1.8,4.3,4.1,6.9,5.5c0.3,0.3,0.6,0.5,0.9,0.8c0.3,0.6,0.5,0.7,1.4,1.2c0.9,0.5,3.2,4,5.9,4.6
			C102.6,37.3,102.8,37.3,103,37.4z M88.8,38.3c-0.4-1.1-1.4-0.9-1.8-1.4c-0.4-0.5-1.2-1.1-1-1.8c0.2-0.8,1.1-0.8,1.8-0.7
			c0.5,0,1.1,0.3,1.4-0.5c0.8-1.8,1.9-1.2,3-0.3c0.5,0.4,0.9,1,1.8,0.5c-0.8-1.5-2.3-2.1-3.4-3.2c-0.3-0.3-0.6-0.3-1,0.1
			c-2.6,2.7-5.8,1.4-9.1,1.4c0.9-1.4,1.8-1.5,2.9-1.6c1,0,1.6-1,1.9-1.8c0.2-0.5-0.5-0.9-1-1.2c-1-0.6-1.4,0.3-1.9,0.9
			c-1,1.2-2,2.5-3.9,2.5c-0.3,0-1,0.4-0.7,0.7c1.3,1.2,0.1,1.7-0.6,2.3c-0.2,0.2-0.7,0.2-0.4,0.7c0.2,0.4,0.5,0.4,1,0.2
			c1-0.5,2.1-0.9,3-1.3c0.6,0.9-0.4,1-0.5,1.3c1,0.8,1.8-0.4,2.6,0.3c0,1.2-1.3,1.1-1.6,1.7C83.4,38.8,86.1,38.2,88.8,38.3z"/>
		<path class="st4" d="M97,32.3c-0.5-0.4-0.5-1,0.1-1.3c0.5-0.3,1.9-1.4,2.6-2.4c0.4-0.5,1-1.1,1.6-0.7c0.9,0.6,0,1.1-0.3,1.5
			c-0.2,0.3-0.6,0.6-0.9,0.8C99.8,30.4,97.5,32.7,97,32.3z"/>
		<path class="st4" d="M103.7,31c0.4-0.5,0.9-0.8,1.4-0.4c0.5,0.4,0,0.9-0.2,1.2c-0.8,0.9-1.5,1.8-2.5,2.6c-1.3,1.1-1.7-0.2-1.2-0.7
			C101.6,33.2,102.9,32,103.7,31z"/>
		<path class="st4" d="M99.1,33.3c-0.4-0.9,0.7-1.1,1-1.7c0.3-0.5,0.8-1,1.1-1.3c0,0,1.2-1.4,2.1-0.6c0.5,0.6-2,2.9-2.4,3.2
			C100.9,32.9,99.6,34.5,99.1,33.3z"/>
		<path class="st4" d="M95.2,31.4c-0.3-0.3-0.6-0.5-0.9-0.8c2.5-1.8,4.2-4.4,6.8-5.9c1-0.6,1.6-0.7,2.5,0.4c1.4,1.6,3.2,2.8,4.9,4.2
			c0.9,0.7,1,1.5,0.3,2.5c-1.6,2.2-3,4.7-5.8,5.7c-0.2-0.1-0.4-0.1-0.6-0.2c1.2-1.5,2.4-3,3.7-4.4c0.6-0.7,1.1-1.3,0.2-2
			c-1.8-1.4-3.4-3.4-5.5-4c-1.6-0.5-2.5,2.1-3.9,3.1c-0.2,0.1-0.3,0.4-0.4,0.6C96.5,30.6,95.7,31.1,95.2,31.4z"/>
	</g>
	<g>
		<path class="st5" d="M66.5,56c-7,3.3-12.7,8.1-17.4,14.2c-3.1,4.1-4.9,8.7-6.5,13.5c-1,3-1.7,3.5-5,2.8c1.4-5.1,2.9-10.1,5.3-14.8
			c1.1-2.1,3-3.8,3.8-6c1-0.9,1.9-1.9,3-2.8c5-4.4,10.1-8.7,16.7-10.7C66.5,53.5,66.5,54.7,66.5,56z"/>
		<path class="st6" d="M66.4,52.2c0-1.1,0-2.2,0-3.3c-8.9,2.2-15.2,8.3-21.1,14.9c-5.7,6.6-8.1,14.6-10.3,22.8
			c0.9,0.4,1.8,0.2,2.6,0c1.4-5.1,2.9-10.1,5.3-14.8c1.1-2.1,3-3.8,3.8-6c0,0,0,0,0,0c1-0.9,1.9-1.9,3-2.8
			C54.8,58.5,59.9,54.2,66.4,52.2z"/>
		<path class="st2" d="M31.4,86.7c2-8.6,4.8-16.9,10.5-23.8c5.8-7,12.5-13,21.2-16.2c1-0.4,2.2-0.5,3.2-0.8c0.1,1,0.1,2,0.2,3
			c0,0-0.2,0-0.2,0c-8.9,2.2-15.2,8.3-21.1,14.9c-5.7,6.6-8.1,14.6-10.3,22.8C33.9,86.8,32.6,86.9,31.4,86.7z"/>
		<path class="st7" d="M66.7,44c0,0,0.1-0.1,0.1-0.1c0-0.1-0.1-0.2-0.1-0.3c-0.1-0.2-0.1-0.3-0.2-0.5c-6.5,1.4-12.1,4.4-17.7,8
			c-4.8,3.1-8.2,7.2-11.2,11.8c-0.2,0.3-0.5,0.6-0.8,0.9c-2.2,4.7-4.5,9.3-6.7,14c-0.5,2.3-1,4.6-1.7,6.8c-0.2,0.8-0.5,1.5,0.5,2
			c0.8,0.4,1.7,0.3,2.5,0.2c2-8.6,4.8-16.9,10.5-23.8c5.8-7,12.5-13,21.2-16.2c1-0.4,2.2-0.5,3.2-0.8c0.1-0.1,0.1-0.3,0.2-0.4
			c0,0,0.1-0.1,0.1-0.1c0-0.1-0.1-0.2-0.1-0.3C66.7,44.7,66.7,44.3,66.7,44z"/>
		<path class="st8" d="M67,39.7c-4.2,0.2-8.1,1.6-11.9,3.3c-5.8,2.5-10.7,6.3-14.7,11.1c-2.2,2.6-6,8-6.2,8.3
			c-0.2,0.3-1.3,1.7-1.9,3c-3.1,5.3-6,10.7-6.9,17c-0.6,4.6-1.5,4.7,3.5,4.2c-1-0.4-0.7-1.1-0.5-2c0.6-2.3,1.1-4.6,1.7-6.8
			c2.2-4.7,4.5-9.3,6.7-14c0.3-0.3,0.6-0.5,0.8-0.9c3-4.6,6.4-8.8,11.2-11.8c5.5-3.5,11.2-6.6,17.7-8C66.8,42,66.2,40.7,67,39.7
			L67,39.7z"/>
	</g>
	<path class="st9" d="M247.7,71.7c0.1-0.6,0-5.9,0-8.9c0-0.8,0-1.6,1.2-1.7c1.2,0,1.2,1,1.3,1.7c0.2,1.8,0.1,3.7,0.2,5.5
		c0.1,1.7,0.1,3,2.9,2.3c5-1.3,5.1,0,5.6-6.9c0.1-1.2-0.9-3.3,1.1-3.3c2.1,0,1.4,2.2,1.3,3.4c-0.3,4.8-0.7,9.7-0.2,14.5
		c0.1,1.4-1,2.5-2.2,3.2c-1.1,0.6-1.5-0.3-1.4-1.2c0.1-1.8,0.2-3.6,0.4-5.4c0.3-2.2-0.1-2.7-2.2-2.2c-0.8,0.2-1.5,0.3-2.3,0.5
		c-2.9,0.6-3.4,1.4-2.7,4.3c0.2,1-0.1,1.7-0.3,2.5c-0.3,1-1.2,1.8-2.2,1.5c-0.7-0.2-0.7-1.3-0.7-2.1C247.5,77,247.6,72.4,247.7,71.7
		z"/>
	<path class="st10" d="M122.2,39c2.7,0.2,5.4,0.6,7.3,2.8c0.8,1,1,1.9-0.1,2.9c-1.1,1-1.8,0.9-2.8-0.1c-1.9-1.9-4.1-2.5-6.8-2.1
		c-3.2,0.5-4.6,1.8-4.9,4.6c-0.3,2.9,1.3,5.5,3.9,6.5c1.9,0.7,3.7,0.7,5.6,0.1c0.6-0.2,1.3-0.5,1.7,0.2c0.4,0.7-0.3,1.1-0.7,1.6
		c-2.3,2.6-5.6,2.9-9,1.6c-3.8-1.5-5.2-4.5-4.8-8.4C112.1,43.4,118,38.7,122.2,39z"/>
	<path class="st11" d="M131.6,72.6c0.5-1.7,0.5-3.5,0.3-5.2c-0.1-1-0.3-2.1-0.2-3.1c0.1-0.9,0.8-1.5,1.8-1.6c1,0,1.1,0.7,1.2,1.4
		c0.8,4.1,0.3,8.3,0.6,12.4c0.2,2-3,3-4.5,1.5c-1.8-1.9-3.3-4.1-5.3-6.6c0,2.7-0.1,4.9,0,7c0.1,1.4-0.6,2.1-1.7,2.5
		c-1,0.4-1.7,0.1-1.6-1.2c0.1-3.6,0.1-7.2,0.2-10.8c0-1-0.3-2.2,1.3-2.4c1.4-0.2,2.7-0.3,3.7,1.1c1,1.4,2,2.9,3,4.3
		C130.7,72.2,130.9,72.6,131.6,72.6z"/>
	<path class="st8" d="M205.6,49.7c0-2.6,0.4-5.1,0.9-7.6c0.2-1.2,0.6-2.1,1.9-2.5c1.3-0.4,2.3-0.1,3.2,0.9c0.6,0.7,1.4,1.3,2.1,1.9
		c0.6,0.4,0.5,1.9,1.6,1.4c0.7-0.3,0.4-1.4,0.6-2.2c0.2-0.6,0.2-1.3,0.6-1.8c0.6-1,1.6-1.9,2.7-1.4c1.2,0.4,0.6,1.6,0.5,2.5
		c-0.3,1.7-0.4,3.5-0.7,5.2c-0.2,1.1-0.5,2.3-1.3,3.1c-1.2,1.2-2.5,2.2-4,0.3c-0.3-0.4-0.8-0.7-1.3-1.1c-0.7-0.6-1.1-1.9-2.2-1.5
		c-1,0.4-0.4,1.6-0.6,2.4c-0.4,1.8-1.9,1.8-3.1,1.9C205.6,51.4,205.5,50.5,205.6,49.7z"/>
	<path class="st9" d="M217.6,70.5c1.1,0.9,2.1,1.6,3,2.3c1.5,1.3,3.1,1.4,4.9,1c1-0.2,2.1-0.5,2.2-1.5c0.1-0.9-1.1-1-1.7-1.4
		c-1.1-0.6-2.3-1.1-3.5-1.5c-1.8-0.6-2.6-1.8-2.5-3.6c0.1-2,0.9-3.7,2.9-4.6c2.4-1.1,6.4,0,8,2.1c0.7,1,1.4,2.1,0.2,3.2
		c-1.3,1.2-2-0.1-2.7-0.9c-1.3-1.5-2.7-2.3-4.6-1.4c-1.1,0.5-1.3,1.1-0.2,2.1c1,0.8,2.2,0.7,3.3,1.1c2,0.8,3.9,1.6,3.8,4.2
		c-0.1,2.1-2.2,4.3-4.4,4.7c-1,0.2-2.1,0.2-3.1,0.3C218.7,76.8,217.3,75.3,217.6,70.5z"/>
	<path class="st10" d="M136.4,55.9c-3-0.1-4-1.1-4.5-4.1c-0.4-2.5-0.2-5.1-0.2-7.6c0-0.8,0.2-1.6,0.8-2.2c0.4-0.4,0.9-0.7,1.5-0.5
		c0.7,0.1,0.8,0.7,0.8,1.3c0.2,2.1,0.4,4.3,0.7,6.4c0.1,0.8,0.1,1.6,0.7,2.2c0.5,0.6,1,1.3,2,1.1c0.8-0.2,1.4-0.7,1.6-1.6
		c0.4-1.8,1.1-3.5,0.6-5.4c-0.3-1.3,0.1-2.5,0.8-3.6c0.5-0.7,1.2-1.1,2-1c0.9,0.2,1.4,1,1.2,1.8c-0.4,3-0.3,6.2-1.5,9.1
		C141.9,54.6,139.5,56,136.4,55.9z"/>
	<path class="st11" d="M136.3,72.1c-0.3-2.3,1-4.7,1.9-7.2c0.4-1.2,1.8-1.5,2.5-1.3c1.3,0.3,0.2,1.5,0.1,2.2
		c-0.3,1.3-0.9,2.5-1.2,3.8c-0.4,1.6-0.6,3.4,0.5,4.8c0.5,0.8,1.2,1.7,2.3,1.5c0.9-0.2,1.5-1,1.8-2c0.6-2.2,1.7-4.2,1.9-6.6
		c0.1-1.6,1.7-1.8,2.7-1.6c1.4,0.2,0.5,1.3,0.4,2.1c-0.6,3.8-1.5,7.4-5.3,9.3C139.6,79.2,136.4,77.3,136.3,72.1z"/>
	<path class="st11" d="M293.5,63.5c-0.2,2.5-0.4,5.4-0.6,8.4c-0.2,2.1,0.6,3.2,2.8,3.2c0.2,0,0.5,0,0.7,0c1.2-0.1,2.9-0.6,3.1,1.2
		c0.2,1.8-1.5,2.4-2.9,2.5c-2.3,0.2-4.5-0.8-6.8-1.2c-1.1-0.2-1.2-1.6-1-2.6c0.7-4.2,1.7-8.4,2-12.7c0.1-1,0.1-2,1.7-1.9
		c1.8,0.1,0.9,1.3,1.1,2.1C293.6,62.6,293.5,62.8,293.5,63.5z"/>
	<path class="st11" d="M240.8,66.6c0.8,0.2,2-0.6,2.5,0.5c0.4,0.9-0.1,1.9-0.5,2.7c-0.5,1-1.2,1.4-2.3,0.7c-1.3-0.9-2.5-1-3.7,0.1
		c-0.9,0.9-0.3,1.8,0.1,2.6c0.6,1.4,1.3,2.8,3.3,2.5c1.2-0.2,2.9-0.7,2.9,1.3c0,1.8-1.1,2.8-3.1,2.8c-4.4,0-6.2-1.9-6.2-7
		C233.8,69.2,236.7,66.6,240.8,66.6z"/>
	<path class="st10" d="M203.5,48c0,0.9-0.1,1.7,0,2.6c0.2,2.1-1.2,2.7-2.7,2.8c-1.8,0.2-1.6-1.3-1.5-2.5c0.1-1.9,0-3.8,0.1-5.7
		c0.1-1.4,0.2-2.9,2.1-2.8c1.8,0.1,2,1.5,2,2.9C203.5,46.3,203.5,47.2,203.5,48z"/>
	<path class="st4" d="M202.6,37.2c0,1.3-2,3.2-3.4,3.2c-1,0-1.6-0.7-1.8-1.6c-0.2-1.3,1.8-2.5,4-2.6
		C202.1,36.2,202.7,36.3,202.6,37.2z"/>
	<path class="st4" d="M275.5,43.8c0.6,0,1.3-0.1,1.5,0.8c0.1,0.8-2.7,2.8-4,2.9c-0.6,0-1.1-0.1-1.1-0.8
		C271.7,45.4,273.7,43.9,275.5,43.8z"/>
	<path class="st10" d="M196,45.2c-2.1-1.3-3-2.9-1.6-5.3c0.3-0.5,0.4-1.1-0.2-1.5c-0.6-0.4-1.2-0.4-1.8,0c-0.5,0.5-1.1,1-1.4,1.6
		c-0.6,1.4-1.4,1.6-2.5,0.6c-0.8-0.8-1.6-1-2.6-0.5c-0.9,0.4-1.7,0.2-2.5-0.1c-3.8-1-7.4-0.3-10.8,1.5c-0.8,0.4-1.1,1.2-1.1,2
		c0,1.5-0.6,1.8-1.6,0.8c-1-1-2.2-1-3.5-1.1c-2-0.2-3.4,0.9-5.1,1.7c-0.2-3.5-1.7-5-5.1-4.8c-2.5,0.1-4.9,0.6-7.3,0.9
		c-1.1,0.2-1.5,1-1.6,2.1c-0.3,3.9-0.6,7.8-1,11.7c-0.1,0.7-0.6,1.8,0.5,2c1.1,0.2,2-0.4,2.4-1.5c0.4-1.1,0.7-2.3,1-3.5
		c0.2-1.1,0.9-1.5,1.9-1.3c1.7,0.4,3.2-0.1,4.6-0.9c1.9-1.1,2.5-0.8,2.6,1.5c0.3,4.5,5.4,7.9,9.7,6.6c1.4-0.4,2.8-1,4.3-1.2
		c1.1-0.1,2.6-0.8,2.7-2.1c0.2-3.3,1.4-1.4,2.7-0.8c2.2,1,4.1,3.9,7,1.5c1.9-1.7,4.5-2.7,5.1-5.7c0.3-1.4,1.2-2.8,3.2-1.3
		c1,0.7,2.7,0.7,3.5-0.4C198.3,46.4,196.8,45.7,196,45.2z M153.7,47.9c-1-0.7-3.5,0.7-3.5-2c-0.1-2.3,1-3.2,3.6-3.2
		c2.1,0,3.4,1,3.3,2.9C156.9,47.6,155.6,48,153.7,47.9z M164.5,45.8c1.5-0.1,2.5,0.7,3.5,1.7c0.1,0.1,0,0.6,0,0.6
		c-1.2,0.2-2.3-0.5-3.3-1c-0.4-0.2-1-0.2-1.1-1.2C163.9,45.9,164.2,45.8,164.5,45.8z M171.9,55c-1.5,0.6-3.5,0.4-5.1-0.4
		c-1.6-0.9-2.9-2.2-3.7-4.2c2.6,1.2,5,1.8,7.4-0.1c0.5-0.4,0.9,0,1.2,0.4c0.1,0.2,0.2,0.5,0.2,0.7C171.8,52.7,173,54.6,171.9,55z
		 M176.2,46.8c-2,0.1-0.9-1.4-1.3-2c0-1.8,1.4-3,3.6-2.8c1.1,0.1,2.6,0.1,2.9,1.6C181.8,44.9,178.7,46.6,176.2,46.8z M188.4,46.8
		c-1.2,2.1-2.2,4.2-2.6,6.7c-2.4-1.1-4.2-2.4-6-3.7c-1.2-0.8-1.2-1.6,0.2-2.2c1.9-0.9,3.6-2,4.5-4c0.5-1.2,1.3-0.6,1.9-0.2
		C187.6,44.3,189.6,44.8,188.4,46.8z"/>
	<path class="st11" d="M188.9,67.3c0-2.2-1.6-2.8-3.3-3.2c-0.5-0.1-1-0.2-1.5-0.4c-0.3,0-0.7,0-1,0c-0.7,0.1-1.5,0.2-2,0.8
		c-0.1,0.1-0.3,0.2-0.4,0.3c-0.3,0.2-0.5,0.5-0.8,0.7c-2,1.1-2.9,2.9-3.3,5.4c-1.2-1.1-2.3-1.5-3.6-1.8c-1.8-0.4-3.6-0.9-4.8-2.4
		c-0.8-1-1.2-1.9,0.1-2.8c0.8-0.5,1.5-0.5,2.3,0c1.1,1.1,2.3,1,3.1-0.2c0.7-1.1-0.3-1.6-1.2-2c-0.3-0.1-0.6-0.2-0.9-0.3
		c-3.4-1-4.9,1.8-7,3.7c-0.7-1.2-1-2.3-2.6-2.5c-3.7-0.4-7,0.5-10.1,2.1c-1.1,0.6-1.9,1.7-1.9,2.9c-0.1,3.3,0,6.7,0,10.1
		c0,1.1,0.6,1.5,1.7,1.4c2.3-0.1,2.9-1.1,2.5-4.6c-0.2-1.4-0.1-2.4,1.5-2.7c1.3-0.2,2.4-0.3,3,1.4c0.6,1.9,1.5,3.7,2.4,5.5
		c0.4,0.9,0.5,2.2,2,1.7c1.5-0.5,1.6-1.7,1.3-2.9c-0.5-1.6-1.2-3.1-1.9-4.6c-0.9-1.9-0.1-3.9,1.8-4.6c0.4-0.2,0.5-0.1,0.7,0.2
		c1.4,2.3,3.9,2.9,6.2,3.7c1.7,0.6,3.3,1.2,4,3.1c0.4,1,0.5,1.9-0.1,2.8c-2,1.4-4.2,2-6.5,1c-1.2-0.5-1.9,0.2-2.2,1.1
		c-0.4,1.1,0.6,1.3,1.3,1.6c1.2,0.4,2.3,0.3,3.5,0c0.3-0.1,0.6-0.2,0.9-0.3c2.3-0.5,4.1-1.8,5.2-3.8c0.6-1.1,1.1-1.1,2-0.4
		c0.4,0.3,0.9,0.6,1.4,0.8c1.3,0.6,2.6,0.4,4,0c0.8-0.4,1.6-0.7,2.3-1.1c0.6-0.3,1.6-0.7,1.2-1.5c-0.4-0.9-1.2-0.1-1.8,0
		c-3.8,0.9-7-1.8-6.2-5.3c0.1,0,0.3,0,0.4,0c1.1,0.5,2.2,0.9,3.2,1.5c2.2,1.3,3.8,0.6,5-1.4c0.1-0.1,0.2-0.2,0.3-0.4
		c0-0.3,0.1-0.7,0.1-1C189.3,68.4,189.5,67.8,188.9,67.3z M160.9,67.4c-0.9,1.5-2.5,1.8-4.2,2c-1-0.2-2.4,0.2-2.7-1.5
		c-0.3-1.6,0.7-2,2-2.4c1.6-0.6,3.1-0.6,4.5,0.5C160.8,66.3,161.2,66.8,160.9,67.4z M185.7,69.6c-1.2-1-2.6-1.7-4.1-2.3
		c-0.3-0.1-0.8-0.6-0.2-0.9c1-0.4,2,0.1,2.9,0.3c1.1,0.3,2.1,1.1,2.6,2.3C186.7,69.9,186.2,70.1,185.7,69.6z"/>
	<path class="st10" d="M270.6,45.5c0-2.6-0.5-4.3-1.6-6c-2-3-7.1-3-9,0c-1.6,2.5-2.1,5.3-2.1,8.2c0,0.9,0.2,1.7-1.1,2
		c-2.7,0.8-7.7-0.4-9.5-2.6c-0.8-1-2.3-2-1.1-3.7c1-1.4,4.1-2,5.5-1.1c0.7,0.5,1.4,1,1.8,1.9c0.5,1,1.3,0.7,1.9,0.1
		c1.4-1.4,1-4.7-0.7-5.7c-2.4-1.3-7.4-0.9-9.2,1.1c-2.2,2.5-4.1,5.5-3,9.1c1.1,3.6,4.4,4.8,7.7,5.2c2.8,0.3,5.8,0.7,7.7-2.5
		c0.5-0.8,1.3-0.5,1.8,0.1c2,1.8,4.6,2.3,6.6,1.1C268.8,51.2,271.2,49,270.6,45.5z M266.5,48.5c-1.4,0.3-2.9,0.3-3.9-1
		c-0.1-0.1-0.2-0.3-0.2-0.4c-0.8-1.8-1.8-3.6-0.5-5.6c0.7-1,1.6-0.9,2.5-0.6c2.2,0.8,3.8,2.9,3.8,5.2
		C268.1,47.2,267.8,48.3,266.5,48.5z"/>
	<path class="st8" d="M306.4,41.9c-1.8-2.9-7.4-4.2-10.2-2.4c-1.1,0.7-1.8,1.8-2.4,2.9c-0.3,0.5-0.5,1.1-1.2,1
		c-0.6-0.1-0.5-0.7-0.7-1.2c-0.4-1.1-0.8-2.4-2-2.9c-2.9-1.2-5.9-1.8-8.7,0.1c-2.5,1.7-3.6,4.3-3.3,7.3c0.2,1.9,0.4,4.6,2.6,4.9
		c3,0.4,6.2,0.7,8.9-1.4c0.3-0.4,0.6-1.3,1.1-0.7c0.6,0.7-0.2,1.4-0.7,2c0,0-0.1,0.2-0.1,0.2c-0.1,0.2-0.2,0.4-0.2,0.7
		c-0.2,0.5-0.3,0.9-0.5,1.4c-0.1,0.2,0,0.3,0.1,0.4c0.5,0,1,0,1.5,0c0,0,0,0,0,0c0.9-0.8,1.8-1.7,2-2.9c0.3-1.4,1.1-1.6,2.3-1.1
		c2.9,1.3,5.6,0.6,8.3-0.6C306.1,48.4,307.7,43.9,306.4,41.9z M286,47.5c-2.5-0.1-5.1-1.7-4.9-3.2c0.2-1.6,1.6-1.9,2.8-2
		c2-0.1,4,2.1,3.9,4C287.8,47.4,286.9,47.5,286,47.5z M302.9,46.1c-0.5,0.8-1.3,0.2-2,0.5c-1.4-0.1-2.8-0.4-4.1-1
		c-0.7-0.3-1.2-0.9-1-1.7c0.3-0.8,1.1-1.3,1.9-1.2c1.8,0.3,3.5,1.1,4.8,2.4C302.8,45.4,303.2,45.7,302.9,46.1z"/>
	<path class="st9" d="M215.8,61.6c-1.9,0.2-3.7,2.3-4.8,4c-0.8,1.4-1.6,1.6-2.6,0.3c-0.4-0.5-0.8-1-1.3-1.4c-3-3-6.2-5.4-10.9-4.6
		c-1.2,0.2-2.3,0.4-3.5,0.5c-1.8,0.2-2.5,1.2-2.4,2.9c0.1,2.1,0.1,4.1,0,6.2c-0.2,3.3-0.1,6.5-0.1,9.8c0,1.5,0.5,1.3,1.5,0.7
		c1.8-1,1.2-2.6,1.4-4c0.3-2-0.5-4,0.4-6.4c1.6,3.5,3.1,6.6,4.1,9.8c0.3,0.8,0.2,2.4,1.8,1.9c1.5-0.5,2.1-1.4,1.5-3.1
		c-0.8-2.5-2-4.9-3-7.3c-0.6-1.3-0.7-2.1,1-2.6c1.7-0.5,2.7-3.1,4.4-2.7c1.6,0.4,2.3,2.7,3.9,3.7c0.8,0.5,1.1,1.3,0.9,2.3
		c-0.4,2.4-0.1,4.8,0.1,7.1c0.2,1.7,0.8,1.4,1.8,0.8c0.9-0.6,1.2-1.3,1.1-2.4c-0.2-4.9-0.1-9.9,3.6-13.8
		C215.2,62.9,216.6,61.6,215.8,61.6z M200.5,65.5c-0.1,0.2-0.2,0.4-0.4,0.5c-0.8,0.8-2.4,1.3-5,1.5c-0.5-0.1-1.3,0.5-1.8,0.1
		c-0.1-0.1-0.1-0.2-0.2-0.3c0-0.2-0.1-0.3-0.1-0.6c-0.1-1.7-0.8-3.5,1.2-4.6c0.1-0.1,0.3-0.1,0.5-0.1c2.6-0.6,5.5,0.5,5.9,2.2
		C200.8,64.7,200.7,65.1,200.5,65.5z"/>
	<path class="st10" d="M230.3,39.2c-4.2-0.4-7.3,2.5-7.6,7c-0.2,2.7,2.1,4.8,5.6,5.1c3.6,0.2,7.1-2.9,7.5-6.3
		C236.3,41.2,233.3,39.5,230.3,39.2z M229.9,48.3c-2.2,0.1-3.5-1.1-3.5-3.4c0-1.4,0.7-2.7,2.6-3c1.5-0.2,3.2,1.7,3.1,3.3
		C231.9,46.6,231.9,48.2,229.9,48.3z"/>
	<path class="st11" d="M274.1,67.2c-0.6-2.2-3.3-3.9-5.5-3.4c-3.1,0.7-5.5,3.6-5.6,7c-0.3,1.4,0.6,2.7,0.6,4.3
		c0.1,2.5,1.6,3.7,4.1,3.3c4-0.6,5.8-2.6,6.2-6.7C274.1,70.2,274.6,68.7,274.1,67.2z M270.7,74.2c-0.1,0.1-0.3,0.1-0.5,0.2
		c-1.7,0.4-3,0.2-3.9-1.3c-1.1-1.8-0.8-3.7-0.1-5.5c0.6-1.4,3.7-1,4.6,0.5c0.1,0.2,0.3,0.5,0.4,0.8c0.4,1,0.6,2.3,0.6,3.1
		C271.9,73,271.7,73.8,270.7,74.2z"/>
	<path class="st11" d="M286.5,67.3c-0.1-0.6-0.1-1.1-0.2-1.7c-0.5-2.7-3.2-4.2-5.8-3.1c-3.3,1.5-5.1,4-4.9,6.8c0,4.2,1.4,6,4,5.9
		C284.2,75.2,287.1,71.7,286.5,67.3z M281.4,71.8c-2,0.1-3.1-1.2-3.1-3.4c0-1.4,2.3-3.8,3.6-3.5c2.1,0.6,2.3,2.4,2.4,4.5
		C284.6,71.4,283,71.7,281.4,71.8z"/>
</g>
</svg>
